<mxfile host="app.diagrams.net" agent="Mozilla/5.0 (Macintosh; Intel Mac OS X 10_15_7) AppleWebKit/605.1.15 (KHTML, like Gecko) Version/17.5 Safari/605.1.15" version="26.1.0">
  <diagram name="第 1 页" id="KX50qXrKCavaSVhrVp2w">
    <mxGraphModel dx="988" dy="553" grid="1" gridSize="10" guides="1" tooltips="1" connect="1" arrows="1" fold="1" page="1" pageScale="1" pageWidth="827" pageHeight="1169" math="0" shadow="0">
      <root>
        <mxCell id="0" />
        <mxCell id="1" parent="0" />
        <mxCell id="J25W4hOzTGrhWLCwGdYL-13" value="" style="rounded=0;whiteSpace=wrap;html=1;" parent="1" vertex="1">
          <mxGeometry x="120" y="160" width="150" height="400" as="geometry" />
        </mxCell>
        <mxCell id="gjkn7aUXX005Zeepqe3c-24" value="" style="group" parent="1" vertex="1" connectable="0">
          <mxGeometry x="30" y="200" width="80" height="75" as="geometry" />
        </mxCell>
        <mxCell id="3f3bSYICgWdEO464dU50-5" value="" style="shape=umlActor;verticalLabelPosition=bottom;verticalAlign=top;html=1;container=0;" parent="gjkn7aUXX005Zeepqe3c-24" vertex="1">
          <mxGeometry x="25" width="30" height="52.94117647058823" as="geometry" />
        </mxCell>
        <mxCell id="gjkn7aUXX005Zeepqe3c-8" value="&lt;div&gt;算法工程师&lt;/div&gt;" style="text;html=1;align=center;verticalAlign=middle;whiteSpace=wrap;rounded=0;container=0;" parent="gjkn7aUXX005Zeepqe3c-24" vertex="1">
          <mxGeometry y="52.94117647058823" width="80" height="22.058823529411764" as="geometry" />
        </mxCell>
        <mxCell id="gjkn7aUXX005Zeepqe3c-25" value="" style="group" parent="1" vertex="1" connectable="0">
          <mxGeometry x="30" y="290" width="80" height="75" as="geometry" />
        </mxCell>
        <mxCell id="gjkn7aUXX005Zeepqe3c-26" value="" style="shape=umlActor;verticalLabelPosition=bottom;verticalAlign=top;html=1;container=0;" parent="gjkn7aUXX005Zeepqe3c-25" vertex="1">
          <mxGeometry x="25" width="30" height="52.94117647058823" as="geometry" />
        </mxCell>
        <mxCell id="gjkn7aUXX005Zeepqe3c-27" value="&lt;div&gt;软件开发人员&lt;/div&gt;" style="text;html=1;align=center;verticalAlign=middle;whiteSpace=wrap;rounded=0;container=0;" parent="gjkn7aUXX005Zeepqe3c-25" vertex="1">
          <mxGeometry y="52.94117647058823" width="80" height="22.058823529411764" as="geometry" />
        </mxCell>
        <mxCell id="gjkn7aUXX005Zeepqe3c-32" value="&lt;div&gt;AI模型开发&lt;/div&gt;" style="ellipse;whiteSpace=wrap;html=1;" parent="1" vertex="1">
          <mxGeometry x="140" y="209" width="110" height="40" as="geometry" />
        </mxCell>
        <mxCell id="gjkn7aUXX005Zeepqe3c-37" value="AI模型部署" style="ellipse;whiteSpace=wrap;html=1;" parent="1" vertex="1">
          <mxGeometry x="140" y="263" width="110" height="40" as="geometry" />
        </mxCell>
        <mxCell id="gjkn7aUXX005Zeepqe3c-41" value="" style="group" parent="1" vertex="1" connectable="0">
          <mxGeometry x="30" y="380" width="80" height="75" as="geometry" />
        </mxCell>
        <mxCell id="gjkn7aUXX005Zeepqe3c-42" value="" style="shape=umlActor;verticalLabelPosition=bottom;verticalAlign=top;html=1;container=0;" parent="gjkn7aUXX005Zeepqe3c-41" vertex="1">
          <mxGeometry x="25" width="30" height="52.94117647058823" as="geometry" />
        </mxCell>
        <mxCell id="gjkn7aUXX005Zeepqe3c-43" value="&lt;div&gt;运维人员&lt;/div&gt;" style="text;html=1;align=center;verticalAlign=middle;whiteSpace=wrap;rounded=0;container=0;" parent="gjkn7aUXX005Zeepqe3c-41" vertex="1">
          <mxGeometry y="52.94117647058823" width="80" height="22.058823529411764" as="geometry" />
        </mxCell>
        <mxCell id="gjkn7aUXX005Zeepqe3c-44" value="" style="group" parent="1" vertex="1" connectable="0">
          <mxGeometry x="30" y="470" width="80" height="75" as="geometry" />
        </mxCell>
        <mxCell id="gjkn7aUXX005Zeepqe3c-45" value="" style="shape=umlActor;verticalLabelPosition=bottom;verticalAlign=top;html=1;container=0;" parent="gjkn7aUXX005Zeepqe3c-44" vertex="1">
          <mxGeometry x="25" width="30" height="52.94117647058823" as="geometry" />
        </mxCell>
        <mxCell id="gjkn7aUXX005Zeepqe3c-46" value="&lt;div&gt;系统管理员&lt;/div&gt;" style="text;html=1;align=center;verticalAlign=middle;whiteSpace=wrap;rounded=0;container=0;" parent="gjkn7aUXX005Zeepqe3c-44" vertex="1">
          <mxGeometry y="52.94117647058823" width="80" height="22.058823529411764" as="geometry" />
        </mxCell>
        <mxCell id="gjkn7aUXX005Zeepqe3c-53" value="&lt;div&gt;&lt;span style=&quot;background-color: transparent; color: light-dark(rgb(0, 0, 0), rgb(255, 255, 255));&quot;&gt;任务调度&lt;/span&gt;&lt;/div&gt;" style="ellipse;whiteSpace=wrap;html=1;" parent="1" vertex="1">
          <mxGeometry x="140" y="464" width="110" height="40" as="geometry" />
        </mxCell>
        <mxCell id="gjkn7aUXX005Zeepqe3c-55" value="" style="endArrow=classic;html=1;rounded=0;" parent="1" target="gjkn7aUXX005Zeepqe3c-53" edge="1">
          <mxGeometry width="50" height="50" relative="1" as="geometry">
            <mxPoint x="90" y="490" as="sourcePoint" />
            <mxPoint x="180" y="277.5" as="targetPoint" />
          </mxGeometry>
        </mxCell>
        <mxCell id="gjkn7aUXX005Zeepqe3c-56" value="" style="endArrow=classic;html=1;rounded=0;entryX=0;entryY=0.5;entryDx=0;entryDy=0;" parent="1" target="gjkn7aUXX005Zeepqe3c-37" edge="1">
          <mxGeometry width="50" height="50" relative="1" as="geometry">
            <mxPoint x="90" y="310" as="sourcePoint" />
            <mxPoint x="180" y="402.5" as="targetPoint" />
          </mxGeometry>
        </mxCell>
        <mxCell id="J25W4hOzTGrhWLCwGdYL-2" value="" style="endArrow=classic;html=1;rounded=0;" parent="1" target="gjkn7aUXX005Zeepqe3c-32" edge="1">
          <mxGeometry width="50" height="50" relative="1" as="geometry">
            <mxPoint x="90" y="230" as="sourcePoint" />
            <mxPoint x="180" y="388" as="targetPoint" />
          </mxGeometry>
        </mxCell>
        <mxCell id="J25W4hOzTGrhWLCwGdYL-3" value="&lt;div&gt;资源管理&lt;/div&gt;" style="ellipse;whiteSpace=wrap;html=1;" parent="1" vertex="1">
          <mxGeometry x="140" y="360" width="110" height="40" as="geometry" />
        </mxCell>
        <mxCell id="J25W4hOzTGrhWLCwGdYL-4" value="" style="endArrow=classic;html=1;rounded=0;entryX=0;entryY=0.5;entryDx=0;entryDy=0;" parent="1" target="J25W4hOzTGrhWLCwGdYL-3" edge="1">
          <mxGeometry width="50" height="50" relative="1" as="geometry">
            <mxPoint x="90" y="400" as="sourcePoint" />
            <mxPoint x="160" y="370" as="targetPoint" />
          </mxGeometry>
        </mxCell>
        <mxCell id="J25W4hOzTGrhWLCwGdYL-5" value="&lt;div&gt;系统监控&lt;/div&gt;" style="ellipse;whiteSpace=wrap;html=1;" parent="1" vertex="1">
          <mxGeometry x="140" y="410" width="110" height="40" as="geometry" />
        </mxCell>
        <mxCell id="J25W4hOzTGrhWLCwGdYL-6" value="" style="endArrow=classic;html=1;rounded=0;entryX=-0.004;entryY=0.356;entryDx=0;entryDy=0;entryPerimeter=0;" parent="1" target="J25W4hOzTGrhWLCwGdYL-5" edge="1">
          <mxGeometry width="50" height="50" relative="1" as="geometry">
            <mxPoint x="90" y="410" as="sourcePoint" />
            <mxPoint x="160" y="438" as="targetPoint" />
          </mxGeometry>
        </mxCell>
        <mxCell id="J25W4hOzTGrhWLCwGdYL-7" value="" style="endArrow=classic;html=1;rounded=0;entryX=0;entryY=0.5;entryDx=0;entryDy=0;" parent="1" target="J25W4hOzTGrhWLCwGdYL-5" edge="1">
          <mxGeometry width="50" height="50" relative="1" as="geometry">
            <mxPoint x="90" y="480" as="sourcePoint" />
            <mxPoint x="160" y="438" as="targetPoint" />
          </mxGeometry>
        </mxCell>
        <mxCell id="J25W4hOzTGrhWLCwGdYL-8" value="用户管理" style="ellipse;whiteSpace=wrap;html=1;" parent="1" vertex="1">
          <mxGeometry x="140" y="509" width="110" height="40" as="geometry" />
        </mxCell>
        <mxCell id="J25W4hOzTGrhWLCwGdYL-9" value="" style="endArrow=classic;html=1;rounded=0;entryX=0;entryY=0.5;entryDx=0;entryDy=0;" parent="1" target="J25W4hOzTGrhWLCwGdYL-8" edge="1">
          <mxGeometry width="50" height="50" relative="1" as="geometry">
            <mxPoint x="90" y="500" as="sourcePoint" />
            <mxPoint x="168" y="479" as="targetPoint" />
          </mxGeometry>
        </mxCell>
        <mxCell id="J25W4hOzTGrhWLCwGdYL-10" value="" style="group" parent="1" vertex="1" connectable="0">
          <mxGeometry x="284" y="380" width="80" height="75" as="geometry" />
        </mxCell>
        <mxCell id="J25W4hOzTGrhWLCwGdYL-11" value="" style="shape=umlActor;verticalLabelPosition=bottom;verticalAlign=top;html=1;container=0;" parent="J25W4hOzTGrhWLCwGdYL-10" vertex="1">
          <mxGeometry x="25" width="30" height="52.94117647058823" as="geometry" />
        </mxCell>
        <mxCell id="J25W4hOzTGrhWLCwGdYL-12" value="&lt;div&gt;应用用户&lt;/div&gt;" style="text;html=1;align=center;verticalAlign=middle;whiteSpace=wrap;rounded=0;container=0;" parent="J25W4hOzTGrhWLCwGdYL-10" vertex="1">
          <mxGeometry y="52.94117647058823" width="80" height="22.058823529411764" as="geometry" />
        </mxCell>
        <mxCell id="J25W4hOzTGrhWLCwGdYL-16" value="" style="endArrow=classic;html=1;rounded=0;entryX=1;entryY=0.5;entryDx=0;entryDy=0;" parent="1" target="J25W4hOzTGrhWLCwGdYL-5" edge="1">
          <mxGeometry width="50" height="50" relative="1" as="geometry">
            <mxPoint x="310" y="417" as="sourcePoint" />
            <mxPoint x="244" y="360" as="targetPoint" />
          </mxGeometry>
        </mxCell>
        <mxCell id="J25W4hOzTGrhWLCwGdYL-17" value="&lt;font style=&quot;font-size: 14px;&quot;&gt;云边协同AI推理平台&lt;/font&gt;" style="text;html=1;align=center;verticalAlign=middle;whiteSpace=wrap;rounded=0;" parent="1" vertex="1">
          <mxGeometry x="127" y="166" width="136" height="30" as="geometry" />
        </mxCell>
        <mxCell id="CvRuecwVY9qPBrn7CFAj-1" value="数据业务开发" style="ellipse;whiteSpace=wrap;html=1;" parent="1" vertex="1">
          <mxGeometry x="140" y="306.5" width="110" height="40" as="geometry" />
        </mxCell>
        <mxCell id="CvRuecwVY9qPBrn7CFAj-2" value="" style="endArrow=classic;html=1;rounded=0;" parent="1" target="CvRuecwVY9qPBrn7CFAj-1" edge="1">
          <mxGeometry width="50" height="50" relative="1" as="geometry">
            <mxPoint x="90" y="320" as="sourcePoint" />
            <mxPoint x="167" y="301" as="targetPoint" />
          </mxGeometry>
        </mxCell>
      </root>
    </mxGraphModel>
  </diagram>
</mxfile>
